<mxfile host="app.diagrams.net" modified="2022-03-10T06:51:50.118Z" agent="5.0 (Macintosh; Intel Mac OS X 10_15_7) AppleWebKit/605.1.15 (KHTML, like Gecko) Version/14.1.2 Safari/605.1.15" etag="OlwSAwY1WJXVUgs4T1_d" version="16.6.7" type="github">
  <diagram id="R2lEEEUBdFMjLlhIrx00" name="Page-1">
    <mxGraphModel dx="1796" dy="1745" grid="1" gridSize="10" guides="1" tooltips="1" connect="1" arrows="1" fold="1" page="1" pageScale="1" pageWidth="850" pageHeight="1100" math="0" shadow="0" extFonts="Permanent Marker^https://fonts.googleapis.com/css?family=Permanent+Marker">
      <root>
        <mxCell id="0" />
        <mxCell id="1" parent="0" />
        <mxCell id="hiLSk8dGG2SegRsiDta0-1" value="&lt;font style=&quot;font-size: 20px&quot;&gt;group&lt;/font&gt;" style="rounded=0;whiteSpace=wrap;html=1;" vertex="1" parent="1">
          <mxGeometry x="64" y="90" width="120" height="60" as="geometry" />
        </mxCell>
        <mxCell id="hiLSk8dGG2SegRsiDta0-2" value="president" style="rounded=0;whiteSpace=wrap;html=1;fontSize=20;" vertex="1" parent="1">
          <mxGeometry x="400" y="90" width="120" height="60" as="geometry" />
        </mxCell>
        <mxCell id="hiLSk8dGG2SegRsiDta0-3" value="vice-president" style="rounded=0;whiteSpace=wrap;html=1;fontSize=20;" vertex="1" parent="1">
          <mxGeometry x="385" y="568" width="150" height="60" as="geometry" />
        </mxCell>
        <mxCell id="hiLSk8dGG2SegRsiDta0-6" style="edgeStyle=none;rounded=0;orthogonalLoop=1;jettySize=auto;html=1;exitX=1;exitY=0.5;exitDx=0;exitDy=0;entryX=0;entryY=0.25;entryDx=0;entryDy=0;fontSize=20;strokeColor=default;endArrow=none;endFill=0;" edge="1" parent="1" source="hiLSk8dGG2SegRsiDta0-4" target="hiLSk8dGG2SegRsiDta0-1">
          <mxGeometry relative="1" as="geometry" />
        </mxCell>
        <mxCell id="hiLSk8dGG2SegRsiDta0-4" value="name" style="ellipse;whiteSpace=wrap;html=1;fontSize=20;" vertex="1" parent="1">
          <mxGeometry x="-106" y="30" width="120" height="80" as="geometry" />
        </mxCell>
        <mxCell id="hiLSk8dGG2SegRsiDta0-8" style="edgeStyle=none;rounded=0;orthogonalLoop=1;jettySize=auto;html=1;entryX=0;entryY=0.5;entryDx=0;entryDy=0;fontSize=20;endArrow=none;endFill=0;strokeColor=default;" edge="1" parent="1" source="hiLSk8dGG2SegRsiDta0-7" target="hiLSk8dGG2SegRsiDta0-1">
          <mxGeometry relative="1" as="geometry" />
        </mxCell>
        <mxCell id="hiLSk8dGG2SegRsiDta0-7" value="base address" style="ellipse;whiteSpace=wrap;html=1;fontSize=20;" vertex="1" parent="1">
          <mxGeometry x="-106" y="130" width="120" height="80" as="geometry" />
        </mxCell>
        <mxCell id="hiLSk8dGG2SegRsiDta0-10" style="edgeStyle=none;rounded=0;orthogonalLoop=1;jettySize=auto;html=1;exitX=1;exitY=0;exitDx=0;exitDy=0;entryX=0;entryY=0.75;entryDx=0;entryDy=0;fontSize=20;endArrow=none;endFill=0;strokeColor=default;" edge="1" parent="1" source="hiLSk8dGG2SegRsiDta0-9" target="hiLSk8dGG2SegRsiDta0-1">
          <mxGeometry relative="1" as="geometry" />
        </mxCell>
        <mxCell id="hiLSk8dGG2SegRsiDta0-9" value="business" style="ellipse;whiteSpace=wrap;html=1;fontSize=20;" vertex="1" parent="1">
          <mxGeometry x="-106" y="230" width="120" height="80" as="geometry" />
        </mxCell>
        <mxCell id="hiLSk8dGG2SegRsiDta0-16" style="edgeStyle=none;rounded=0;orthogonalLoop=1;jettySize=auto;html=1;exitX=0;exitY=0.5;exitDx=0;exitDy=0;entryX=1;entryY=0.25;entryDx=0;entryDy=0;fontSize=20;endArrow=none;endFill=0;strokeColor=default;" edge="1" parent="1" source="hiLSk8dGG2SegRsiDta0-11" target="hiLSk8dGG2SegRsiDta0-2">
          <mxGeometry relative="1" as="geometry" />
        </mxCell>
        <mxCell id="hiLSk8dGG2SegRsiDta0-11" value="internal ID" style="ellipse;whiteSpace=wrap;html=1;fontSize=20;" vertex="1" parent="1">
          <mxGeometry x="570" y="-90" width="120" height="80" as="geometry" />
        </mxCell>
        <mxCell id="hiLSk8dGG2SegRsiDta0-17" style="edgeStyle=none;rounded=0;orthogonalLoop=1;jettySize=auto;html=1;exitX=0;exitY=0.5;exitDx=0;exitDy=0;fontSize=20;endArrow=none;endFill=0;strokeColor=default;" edge="1" parent="1" source="hiLSk8dGG2SegRsiDta0-12">
          <mxGeometry relative="1" as="geometry">
            <mxPoint x="520" y="110" as="targetPoint" />
          </mxGeometry>
        </mxCell>
        <mxCell id="hiLSk8dGG2SegRsiDta0-12" value="name" style="ellipse;whiteSpace=wrap;html=1;fontSize=20;" vertex="1" parent="1">
          <mxGeometry x="570" width="120" height="80" as="geometry" />
        </mxCell>
        <mxCell id="hiLSk8dGG2SegRsiDta0-18" style="edgeStyle=none;rounded=0;orthogonalLoop=1;jettySize=auto;html=1;exitX=0;exitY=0.5;exitDx=0;exitDy=0;fontSize=20;endArrow=none;endFill=0;strokeColor=default;" edge="1" parent="1" source="hiLSk8dGG2SegRsiDta0-13">
          <mxGeometry relative="1" as="geometry">
            <mxPoint x="520" y="120" as="targetPoint" />
          </mxGeometry>
        </mxCell>
        <mxCell id="hiLSk8dGG2SegRsiDta0-13" value="gender" style="ellipse;whiteSpace=wrap;html=1;fontSize=20;" vertex="1" parent="1">
          <mxGeometry x="570" y="90" width="120" height="80" as="geometry" />
        </mxCell>
        <mxCell id="hiLSk8dGG2SegRsiDta0-19" style="edgeStyle=none;rounded=0;orthogonalLoop=1;jettySize=auto;html=1;exitX=0;exitY=0.5;exitDx=0;exitDy=0;fontSize=20;endArrow=none;endFill=0;strokeColor=default;" edge="1" parent="1" source="hiLSk8dGG2SegRsiDta0-14">
          <mxGeometry relative="1" as="geometry">
            <mxPoint x="520" y="130" as="targetPoint" />
          </mxGeometry>
        </mxCell>
        <mxCell id="hiLSk8dGG2SegRsiDta0-14" value="email" style="ellipse;whiteSpace=wrap;html=1;fontSize=20;" vertex="1" parent="1">
          <mxGeometry x="570" y="180" width="120" height="80" as="geometry" />
        </mxCell>
        <mxCell id="hiLSk8dGG2SegRsiDta0-20" style="edgeStyle=none;rounded=0;orthogonalLoop=1;jettySize=auto;html=1;fontSize=20;endArrow=none;endFill=0;strokeColor=default;entryX=1;entryY=0.75;entryDx=0;entryDy=0;" edge="1" parent="1" source="hiLSk8dGG2SegRsiDta0-15" target="hiLSk8dGG2SegRsiDta0-2">
          <mxGeometry relative="1" as="geometry">
            <mxPoint x="520" y="140" as="targetPoint" />
          </mxGeometry>
        </mxCell>
        <mxCell id="hiLSk8dGG2SegRsiDta0-15" value="phone" style="ellipse;whiteSpace=wrap;html=1;fontSize=20;" vertex="1" parent="1">
          <mxGeometry x="570" y="280" width="120" height="80" as="geometry" />
        </mxCell>
        <mxCell id="hiLSk8dGG2SegRsiDta0-26" style="edgeStyle=none;rounded=0;orthogonalLoop=1;jettySize=auto;html=1;exitX=0;exitY=0.5;exitDx=0;exitDy=0;entryX=1;entryY=0.25;entryDx=0;entryDy=0;fontSize=20;endArrow=none;endFill=0;strokeColor=default;" edge="1" parent="1" source="hiLSk8dGG2SegRsiDta0-21" target="hiLSk8dGG2SegRsiDta0-3">
          <mxGeometry relative="1" as="geometry" />
        </mxCell>
        <mxCell id="hiLSk8dGG2SegRsiDta0-21" value="internal ID" style="ellipse;whiteSpace=wrap;html=1;fontSize=20;" vertex="1" parent="1">
          <mxGeometry x="569" y="378" width="120" height="80" as="geometry" />
        </mxCell>
        <mxCell id="hiLSk8dGG2SegRsiDta0-27" style="edgeStyle=none;rounded=0;orthogonalLoop=1;jettySize=auto;html=1;exitX=0;exitY=0.5;exitDx=0;exitDy=0;fontSize=20;endArrow=none;endFill=0;strokeColor=default;entryX=1;entryY=0.25;entryDx=0;entryDy=0;" edge="1" parent="1" source="hiLSk8dGG2SegRsiDta0-22" target="hiLSk8dGG2SegRsiDta0-3">
          <mxGeometry relative="1" as="geometry">
            <mxPoint x="540" y="580" as="targetPoint" />
          </mxGeometry>
        </mxCell>
        <mxCell id="hiLSk8dGG2SegRsiDta0-22" value="name" style="ellipse;whiteSpace=wrap;html=1;fontSize=20;" vertex="1" parent="1">
          <mxGeometry x="569" y="468" width="120" height="80" as="geometry" />
        </mxCell>
        <mxCell id="hiLSk8dGG2SegRsiDta0-28" style="edgeStyle=none;rounded=0;orthogonalLoop=1;jettySize=auto;html=1;exitX=0;exitY=0.5;exitDx=0;exitDy=0;entryX=1;entryY=0.5;entryDx=0;entryDy=0;fontSize=20;endArrow=none;endFill=0;strokeColor=default;" edge="1" parent="1" source="hiLSk8dGG2SegRsiDta0-23" target="hiLSk8dGG2SegRsiDta0-3">
          <mxGeometry relative="1" as="geometry" />
        </mxCell>
        <mxCell id="hiLSk8dGG2SegRsiDta0-23" value="gender" style="ellipse;whiteSpace=wrap;html=1;fontSize=20;" vertex="1" parent="1">
          <mxGeometry x="569" y="558" width="120" height="80" as="geometry" />
        </mxCell>
        <mxCell id="hiLSk8dGG2SegRsiDta0-29" style="edgeStyle=none;rounded=0;orthogonalLoop=1;jettySize=auto;html=1;entryX=1;entryY=0.5;entryDx=0;entryDy=0;fontSize=20;endArrow=none;endFill=0;strokeColor=default;" edge="1" parent="1" source="hiLSk8dGG2SegRsiDta0-24" target="hiLSk8dGG2SegRsiDta0-3">
          <mxGeometry relative="1" as="geometry" />
        </mxCell>
        <mxCell id="hiLSk8dGG2SegRsiDta0-24" value="email" style="ellipse;whiteSpace=wrap;html=1;fontSize=20;" vertex="1" parent="1">
          <mxGeometry x="569" y="648" width="120" height="80" as="geometry" />
        </mxCell>
        <mxCell id="hiLSk8dGG2SegRsiDta0-30" style="edgeStyle=none;rounded=0;orthogonalLoop=1;jettySize=auto;html=1;entryX=1;entryY=0.5;entryDx=0;entryDy=0;fontSize=20;endArrow=none;endFill=0;strokeColor=default;" edge="1" parent="1" source="hiLSk8dGG2SegRsiDta0-25" target="hiLSk8dGG2SegRsiDta0-3">
          <mxGeometry relative="1" as="geometry" />
        </mxCell>
        <mxCell id="hiLSk8dGG2SegRsiDta0-25" value="phone" style="ellipse;whiteSpace=wrap;html=1;fontSize=20;" vertex="1" parent="1">
          <mxGeometry x="569" y="748" width="120" height="80" as="geometry" />
        </mxCell>
        <mxCell id="hiLSk8dGG2SegRsiDta0-32" style="edgeStyle=none;rounded=0;orthogonalLoop=1;jettySize=auto;html=1;fontSize=20;endArrow=none;endFill=0;strokeColor=default;" edge="1" parent="1" source="hiLSk8dGG2SegRsiDta0-31" target="hiLSk8dGG2SegRsiDta0-3">
          <mxGeometry relative="1" as="geometry" />
        </mxCell>
        <mxCell id="hiLSk8dGG2SegRsiDta0-34" style="edgeStyle=none;rounded=0;orthogonalLoop=1;jettySize=auto;html=1;entryX=0.5;entryY=1;entryDx=0;entryDy=0;fontSize=20;endArrow=classic;endFill=1;strokeColor=default;" edge="1" parent="1" source="hiLSk8dGG2SegRsiDta0-31" target="hiLSk8dGG2SegRsiDta0-2">
          <mxGeometry relative="1" as="geometry" />
        </mxCell>
        <mxCell id="hiLSk8dGG2SegRsiDta0-31" value="report" style="rhombus;whiteSpace=wrap;html=1;fontSize=20;" vertex="1" parent="1">
          <mxGeometry x="420" y="330" width="80" height="80" as="geometry" />
        </mxCell>
        <mxCell id="hiLSk8dGG2SegRsiDta0-38" style="edgeStyle=none;rounded=0;orthogonalLoop=1;jettySize=auto;html=1;entryX=1;entryY=0.5;entryDx=0;entryDy=0;fontSize=20;endArrow=classic;endFill=1;strokeColor=default;" edge="1" parent="1" source="hiLSk8dGG2SegRsiDta0-35" target="hiLSk8dGG2SegRsiDta0-1">
          <mxGeometry relative="1" as="geometry" />
        </mxCell>
        <mxCell id="hiLSk8dGG2SegRsiDta0-39" style="edgeStyle=none;rounded=0;orthogonalLoop=1;jettySize=auto;html=1;entryX=0;entryY=0.5;entryDx=0;entryDy=0;fontSize=20;endArrow=classic;endFill=1;strokeColor=default;" edge="1" parent="1" source="hiLSk8dGG2SegRsiDta0-35" target="hiLSk8dGG2SegRsiDta0-2">
          <mxGeometry relative="1" as="geometry" />
        </mxCell>
        <mxCell id="hiLSk8dGG2SegRsiDta0-35" value="have" style="rhombus;whiteSpace=wrap;html=1;fontSize=20;" vertex="1" parent="1">
          <mxGeometry x="250" y="80" width="80" height="80" as="geometry" />
        </mxCell>
        <mxCell id="hiLSk8dGG2SegRsiDta0-40" value="department" style="rounded=0;whiteSpace=wrap;html=1;fontSize=20;" vertex="1" parent="1">
          <mxGeometry x="64" y="568" width="120" height="60" as="geometry" />
        </mxCell>
        <mxCell id="hiLSk8dGG2SegRsiDta0-42" value="staff" style="rounded=0;whiteSpace=wrap;html=1;fontSize=20;" vertex="1" parent="1">
          <mxGeometry x="-120" y="790" width="120" height="60" as="geometry" />
        </mxCell>
        <mxCell id="hiLSk8dGG2SegRsiDta0-49" style="edgeStyle=none;rounded=0;orthogonalLoop=1;jettySize=auto;html=1;fontSize=20;endArrow=none;endFill=0;strokeColor=default;" edge="1" parent="1" source="hiLSk8dGG2SegRsiDta0-43" target="hiLSk8dGG2SegRsiDta0-42">
          <mxGeometry relative="1" as="geometry" />
        </mxCell>
        <mxCell id="hiLSk8dGG2SegRsiDta0-43" value="internal ID" style="ellipse;whiteSpace=wrap;html=1;fontSize=20;" vertex="1" parent="1">
          <mxGeometry x="-273" y="596" width="120" height="80" as="geometry" />
        </mxCell>
        <mxCell id="hiLSk8dGG2SegRsiDta0-50" style="edgeStyle=none;rounded=0;orthogonalLoop=1;jettySize=auto;html=1;fontSize=20;endArrow=none;endFill=0;strokeColor=default;" edge="1" parent="1" source="hiLSk8dGG2SegRsiDta0-44">
          <mxGeometry relative="1" as="geometry">
            <mxPoint x="-110" y="790" as="targetPoint" />
          </mxGeometry>
        </mxCell>
        <mxCell id="hiLSk8dGG2SegRsiDta0-44" value="name" style="ellipse;whiteSpace=wrap;html=1;fontSize=20;" vertex="1" parent="1">
          <mxGeometry x="-350" y="650" width="120" height="80" as="geometry" />
        </mxCell>
        <mxCell id="hiLSk8dGG2SegRsiDta0-51" style="edgeStyle=none;rounded=0;orthogonalLoop=1;jettySize=auto;html=1;fontSize=20;endArrow=none;endFill=0;strokeColor=default;" edge="1" parent="1" source="hiLSk8dGG2SegRsiDta0-45" target="hiLSk8dGG2SegRsiDta0-42">
          <mxGeometry relative="1" as="geometry" />
        </mxCell>
        <mxCell id="hiLSk8dGG2SegRsiDta0-45" value="gender" style="ellipse;whiteSpace=wrap;html=1;fontSize=20;" vertex="1" parent="1">
          <mxGeometry x="-380" y="728" width="120" height="80" as="geometry" />
        </mxCell>
        <mxCell id="hiLSk8dGG2SegRsiDta0-52" style="edgeStyle=none;rounded=0;orthogonalLoop=1;jettySize=auto;html=1;fontSize=20;endArrow=none;endFill=0;strokeColor=default;" edge="1" parent="1" source="hiLSk8dGG2SegRsiDta0-46">
          <mxGeometry relative="1" as="geometry">
            <mxPoint x="-120" y="830" as="targetPoint" />
          </mxGeometry>
        </mxCell>
        <mxCell id="hiLSk8dGG2SegRsiDta0-46" value="email" style="ellipse;whiteSpace=wrap;html=1;fontSize=20;" vertex="1" parent="1">
          <mxGeometry x="-410" y="817" width="120" height="80" as="geometry" />
        </mxCell>
        <mxCell id="hiLSk8dGG2SegRsiDta0-53" style="edgeStyle=none;rounded=0;orthogonalLoop=1;jettySize=auto;html=1;entryX=0;entryY=1;entryDx=0;entryDy=0;fontSize=20;endArrow=none;endFill=0;strokeColor=default;" edge="1" parent="1" source="hiLSk8dGG2SegRsiDta0-47" target="hiLSk8dGG2SegRsiDta0-42">
          <mxGeometry relative="1" as="geometry" />
        </mxCell>
        <mxCell id="hiLSk8dGG2SegRsiDta0-47" value="phone" style="ellipse;whiteSpace=wrap;html=1;fontSize=20;" vertex="1" parent="1">
          <mxGeometry x="-420" y="906" width="120" height="80" as="geometry" />
        </mxCell>
        <mxCell id="hiLSk8dGG2SegRsiDta0-55" style="edgeStyle=none;rounded=0;orthogonalLoop=1;jettySize=auto;html=1;entryX=0.5;entryY=0;entryDx=0;entryDy=0;fontSize=20;endArrow=none;endFill=0;strokeColor=default;" edge="1" parent="1" source="hiLSk8dGG2SegRsiDta0-54" target="hiLSk8dGG2SegRsiDta0-42">
          <mxGeometry relative="1" as="geometry" />
        </mxCell>
        <mxCell id="hiLSk8dGG2SegRsiDta0-56" style="edgeStyle=none;rounded=0;orthogonalLoop=1;jettySize=auto;html=1;entryX=0.25;entryY=1;entryDx=0;entryDy=0;fontSize=20;endArrow=none;endFill=0;strokeColor=default;" edge="1" parent="1" source="hiLSk8dGG2SegRsiDta0-54" target="hiLSk8dGG2SegRsiDta0-40">
          <mxGeometry relative="1" as="geometry" />
        </mxCell>
        <mxCell id="hiLSk8dGG2SegRsiDta0-54" value="have" style="rhombus;whiteSpace=wrap;html=1;fontSize=20;" vertex="1" parent="1">
          <mxGeometry x="-60" y="650" width="80" height="80" as="geometry" />
        </mxCell>
        <mxCell id="hiLSk8dGG2SegRsiDta0-58" style="edgeStyle=none;rounded=0;orthogonalLoop=1;jettySize=auto;html=1;entryX=0;entryY=0;entryDx=0;entryDy=0;fontSize=20;endArrow=none;endFill=0;strokeColor=default;" edge="1" parent="1" source="hiLSk8dGG2SegRsiDta0-57" target="hiLSk8dGG2SegRsiDta0-40">
          <mxGeometry relative="1" as="geometry" />
        </mxCell>
        <mxCell id="hiLSk8dGG2SegRsiDta0-57" value="name" style="ellipse;whiteSpace=wrap;html=1;fontSize=20;" vertex="1" parent="1">
          <mxGeometry x="-140" y="340" width="120" height="80" as="geometry" />
        </mxCell>
        <mxCell id="hiLSk8dGG2SegRsiDta0-64" value="director" style="rounded=0;whiteSpace=wrap;html=1;fontSize=20;" vertex="1" parent="1">
          <mxGeometry x="110" y="817" width="120" height="60" as="geometry" />
        </mxCell>
        <mxCell id="hiLSk8dGG2SegRsiDta0-65" style="edgeStyle=none;rounded=0;orthogonalLoop=1;jettySize=auto;html=1;fontSize=20;endArrow=none;endFill=0;strokeColor=default;" edge="1" parent="1" source="hiLSk8dGG2SegRsiDta0-66" target="hiLSk8dGG2SegRsiDta0-64">
          <mxGeometry relative="1" as="geometry" />
        </mxCell>
        <mxCell id="hiLSk8dGG2SegRsiDta0-66" value="internal ID" style="ellipse;whiteSpace=wrap;html=1;fontSize=20;" vertex="1" parent="1">
          <mxGeometry x="365" y="686" width="120" height="80" as="geometry" />
        </mxCell>
        <mxCell id="hiLSk8dGG2SegRsiDta0-78" style="edgeStyle=none;rounded=0;orthogonalLoop=1;jettySize=auto;html=1;entryX=1;entryY=0.4;entryDx=0;entryDy=0;entryPerimeter=0;fontSize=20;endArrow=none;endFill=0;strokeColor=default;" edge="1" parent="1" source="hiLSk8dGG2SegRsiDta0-68" target="hiLSk8dGG2SegRsiDta0-64">
          <mxGeometry relative="1" as="geometry" />
        </mxCell>
        <mxCell id="hiLSk8dGG2SegRsiDta0-68" value="name" style="ellipse;whiteSpace=wrap;html=1;fontSize=20;" vertex="1" parent="1">
          <mxGeometry x="365" y="766" width="120" height="80" as="geometry" />
        </mxCell>
        <mxCell id="hiLSk8dGG2SegRsiDta0-69" style="edgeStyle=none;rounded=0;orthogonalLoop=1;jettySize=auto;html=1;fontSize=20;endArrow=none;endFill=0;strokeColor=default;" edge="1" parent="1" source="hiLSk8dGG2SegRsiDta0-70" target="hiLSk8dGG2SegRsiDta0-64">
          <mxGeometry relative="1" as="geometry" />
        </mxCell>
        <mxCell id="hiLSk8dGG2SegRsiDta0-70" value="gender" style="ellipse;whiteSpace=wrap;html=1;fontSize=20;" vertex="1" parent="1">
          <mxGeometry x="340" y="850" width="120" height="80" as="geometry" />
        </mxCell>
        <mxCell id="hiLSk8dGG2SegRsiDta0-79" style="edgeStyle=none;rounded=0;orthogonalLoop=1;jettySize=auto;html=1;fontSize=20;endArrow=none;endFill=0;strokeColor=default;" edge="1" parent="1" source="hiLSk8dGG2SegRsiDta0-72">
          <mxGeometry relative="1" as="geometry">
            <mxPoint x="230" y="860" as="targetPoint" />
          </mxGeometry>
        </mxCell>
        <mxCell id="hiLSk8dGG2SegRsiDta0-72" value="email" style="ellipse;whiteSpace=wrap;html=1;fontSize=20;" vertex="1" parent="1">
          <mxGeometry x="320" y="930" width="120" height="80" as="geometry" />
        </mxCell>
        <mxCell id="hiLSk8dGG2SegRsiDta0-73" style="edgeStyle=none;rounded=0;orthogonalLoop=1;jettySize=auto;html=1;entryX=1;entryY=0.75;entryDx=0;entryDy=0;fontSize=20;endArrow=none;endFill=0;strokeColor=default;" edge="1" parent="1" source="hiLSk8dGG2SegRsiDta0-74" target="hiLSk8dGG2SegRsiDta0-64">
          <mxGeometry relative="1" as="geometry" />
        </mxCell>
        <mxCell id="hiLSk8dGG2SegRsiDta0-74" value="phone" style="ellipse;whiteSpace=wrap;html=1;fontSize=20;" vertex="1" parent="1">
          <mxGeometry x="257" y="1017" width="120" height="80" as="geometry" />
        </mxCell>
        <mxCell id="hiLSk8dGG2SegRsiDta0-75" style="edgeStyle=none;rounded=0;orthogonalLoop=1;jettySize=auto;html=1;entryX=0.5;entryY=0;entryDx=0;entryDy=0;fontSize=20;endArrow=classic;endFill=1;strokeColor=default;" edge="1" parent="1" source="hiLSk8dGG2SegRsiDta0-76" target="hiLSk8dGG2SegRsiDta0-64">
          <mxGeometry relative="1" as="geometry" />
        </mxCell>
        <mxCell id="hiLSk8dGG2SegRsiDta0-98" style="edgeStyle=none;rounded=0;orthogonalLoop=1;jettySize=auto;html=1;entryX=0.75;entryY=1;entryDx=0;entryDy=0;fontSize=20;endArrow=classic;endFill=1;strokeColor=default;" edge="1" parent="1" source="hiLSk8dGG2SegRsiDta0-76" target="hiLSk8dGG2SegRsiDta0-40">
          <mxGeometry relative="1" as="geometry" />
        </mxCell>
        <mxCell id="hiLSk8dGG2SegRsiDta0-76" value="have" style="rhombus;whiteSpace=wrap;html=1;fontSize=20;" vertex="1" parent="1">
          <mxGeometry x="120" y="686" width="80" height="80" as="geometry" />
        </mxCell>
        <mxCell id="hiLSk8dGG2SegRsiDta0-82" style="edgeStyle=none;rounded=0;orthogonalLoop=1;jettySize=auto;html=1;fontSize=20;endArrow=none;endFill=0;strokeColor=default;" edge="1" parent="1" source="hiLSk8dGG2SegRsiDta0-81" target="hiLSk8dGG2SegRsiDta0-3">
          <mxGeometry relative="1" as="geometry" />
        </mxCell>
        <mxCell id="hiLSk8dGG2SegRsiDta0-83" style="edgeStyle=none;rounded=0;orthogonalLoop=1;jettySize=auto;html=1;entryX=0.75;entryY=0;entryDx=0;entryDy=0;fontSize=20;endArrow=classic;endFill=1;strokeColor=default;" edge="1" parent="1" source="hiLSk8dGG2SegRsiDta0-81" target="hiLSk8dGG2SegRsiDta0-64">
          <mxGeometry relative="1" as="geometry" />
        </mxCell>
        <mxCell id="hiLSk8dGG2SegRsiDta0-81" value="report" style="rhombus;whiteSpace=wrap;html=1;fontSize=20;" vertex="1" parent="1">
          <mxGeometry x="250" y="676" width="80" height="80" as="geometry" />
        </mxCell>
        <mxCell id="hiLSk8dGG2SegRsiDta0-84" value="team leader" style="rounded=0;whiteSpace=wrap;html=1;fontSize=20;" vertex="1" parent="1">
          <mxGeometry x="-210" y="986" width="120" height="60" as="geometry" />
        </mxCell>
        <mxCell id="hiLSk8dGG2SegRsiDta0-94" style="edgeStyle=none;rounded=0;orthogonalLoop=1;jettySize=auto;html=1;fontSize=20;endArrow=none;endFill=0;strokeColor=default;" edge="1" parent="1" source="hiLSk8dGG2SegRsiDta0-85" target="hiLSk8dGG2SegRsiDta0-93">
          <mxGeometry relative="1" as="geometry" />
        </mxCell>
        <mxCell id="hiLSk8dGG2SegRsiDta0-85" value="business team" style="rounded=0;whiteSpace=wrap;html=1;fontSize=20;" vertex="1" parent="1">
          <mxGeometry x="-30" y="986" width="120" height="60" as="geometry" />
        </mxCell>
        <mxCell id="hiLSk8dGG2SegRsiDta0-87" style="edgeStyle=none;rounded=0;orthogonalLoop=1;jettySize=auto;html=1;entryX=0.5;entryY=1;entryDx=0;entryDy=0;fontSize=20;endArrow=none;endFill=0;strokeColor=default;" edge="1" parent="1" source="hiLSk8dGG2SegRsiDta0-86" target="hiLSk8dGG2SegRsiDta0-42">
          <mxGeometry relative="1" as="geometry" />
        </mxCell>
        <mxCell id="hiLSk8dGG2SegRsiDta0-88" style="edgeStyle=none;rounded=0;orthogonalLoop=1;jettySize=auto;html=1;entryX=0.5;entryY=0;entryDx=0;entryDy=0;fontSize=20;endArrow=none;endFill=0;strokeColor=default;" edge="1" parent="1" source="hiLSk8dGG2SegRsiDta0-86" target="hiLSk8dGG2SegRsiDta0-85">
          <mxGeometry relative="1" as="geometry" />
        </mxCell>
        <mxCell id="hiLSk8dGG2SegRsiDta0-86" value="join" style="rhombus;whiteSpace=wrap;html=1;fontSize=20;" vertex="1" parent="1">
          <mxGeometry x="-30" y="870" width="80" height="80" as="geometry" />
        </mxCell>
        <mxCell id="hiLSk8dGG2SegRsiDta0-89" value="subdomain" style="rounded=0;whiteSpace=wrap;html=1;fontSize=20;" vertex="1" parent="1">
          <mxGeometry x="-310" y="490" width="120" height="60" as="geometry" />
        </mxCell>
        <mxCell id="hiLSk8dGG2SegRsiDta0-99" style="edgeStyle=none;rounded=0;orthogonalLoop=1;jettySize=auto;html=1;entryX=0;entryY=0.5;entryDx=0;entryDy=0;fontSize=20;endArrow=classic;endFill=1;strokeColor=default;" edge="1" parent="1" source="hiLSk8dGG2SegRsiDta0-90" target="hiLSk8dGG2SegRsiDta0-40">
          <mxGeometry relative="1" as="geometry" />
        </mxCell>
        <mxCell id="hiLSk8dGG2SegRsiDta0-100" style="edgeStyle=none;rounded=0;orthogonalLoop=1;jettySize=auto;html=1;fontSize=20;endArrow=none;endFill=0;strokeColor=default;" edge="1" parent="1" source="hiLSk8dGG2SegRsiDta0-90" target="hiLSk8dGG2SegRsiDta0-89">
          <mxGeometry relative="1" as="geometry" />
        </mxCell>
        <mxCell id="hiLSk8dGG2SegRsiDta0-90" value="taking charge of" style="rhombus;whiteSpace=wrap;html=1;fontSize=20;" vertex="1" parent="1">
          <mxGeometry x="-130" y="505" width="120" height="90" as="geometry" />
        </mxCell>
        <mxCell id="hiLSk8dGG2SegRsiDta0-96" style="edgeStyle=none;rounded=0;orthogonalLoop=1;jettySize=auto;html=1;exitX=1;exitY=0;exitDx=0;exitDy=0;fontSize=20;endArrow=none;endFill=0;strokeColor=default;" edge="1" parent="1" source="hiLSk8dGG2SegRsiDta0-93" target="hiLSk8dGG2SegRsiDta0-64">
          <mxGeometry relative="1" as="geometry" />
        </mxCell>
        <mxCell id="hiLSk8dGG2SegRsiDta0-93" value="supervised" style="rhombus;whiteSpace=wrap;html=1;fontSize=20;" vertex="1" parent="1">
          <mxGeometry x="64" y="906" width="130" height="80" as="geometry" />
        </mxCell>
      </root>
    </mxGraphModel>
  </diagram>
</mxfile>
